{
  "accessors": [
    {
      "bufferView": 2,
      "componentType": 5126,
      "count": 8290,
      "max": [
        1.612779974937439,
        3.5654997825622559,
        1.2001999616622925
      ],
      "min": [
        -1.615149974822998,
        -0.0032800436019897461,
        -0.37709000706672668
      ],
      "type": "VEC3"
    },
    {
      "bufferView": 2,
      "byteOffset": 99480,
      "componentType": 5126,
      "count": 8290,
      "max": [
        0.99998408555984497,
        0.99954843521118164,
        0.99998283386230469
      ],
      "min": [
        -0.99998408555984497,
        -1,
        -0.99923169612884521
      ],
      "type": "VEC3"
    },
    {
      "bufferView": 3,
      "componentType": 5126,
      "count": 8290,
      "max": [
        0.99999916553497314,
        0.99939721822738647,
        0.99928289651870728,
        1
      ],
      "min": [
        -0.99996650218963623,
        -0.99928510189056396,
        -0.99999457597732544,
        -1
      ],
      "type": "VEC4"
    },
    {
      "bufferView": 1,
      "componentType": 5126,
      "count": 8290,
      "max": [
        0.99807322025299072,
        1
      ],
      "min": [
        0,
        0
      ],
      "type": "VEC2"
    },
    {
      "bufferView": 0,
      "componentType": 5125,
      "count": 45558,
      "max": [
        8289
      ],
      "min": [
        0
      ],
      "type": "SCALAR"
    },
    {
      "bufferView": 2,
      "byteOffset": 198960,
      "componentType": 5126,
      "count": 25519,
      "max": [
        1.4754899740219116,
        3.8592700958251953,
        1.7114200592041016
      ],
      "min": [
        -1.4763000011444092,
        0.88858997821807861,
        -0.95613998174667358
      ],
      "type": "VEC3"
    },
    {
      "bufferView": 2,
      "byteOffset": 505188,
      "componentType": 5126,
      "count": 25519,
      "max": [
        0.99999934434890747,
        0.99999082088470459,
        0.99993866682052612
      ],
      "min": [
        -0.99997657537460327,
        -0.99998831748962402,
        -0.99997740983963013
      ],
      "type": "VEC3"
    },
    {
      "bufferView": 3,
      "byteOffset": 132640,
      "componentType": 5126,
      "count": 25519,
      "max": [
        0.99980336427688599,
        0.99996942281723022,
        0.99997800588607788,
        1
      ],
      "min": [
        -0.99996417760848999,
        -0.99985700845718384,
        -0.99961018562316895,
        -1
      ],
      "type": "VEC4"
    },
    {
      "bufferView": 1,
      "byteOffset": 66320,
      "componentType": 5126,
      "count": 25519,
      "max": [
        0.99791145324707031,
        1
      ],
      "min": [
        0,
        0
      ],
      "type": "VEC2"
    },
    {
      "bufferView": 0,
      "byteOffset": 182232,
      "componentType": 5125,
      "count": 143661,
      "max": [
        25518
      ],
      "min": [
        0
      ],
      "type": "SCALAR"
    }
  ],
  "asset": {
    "extras": {
      "author": "DarrenConcepting (https://sketchfab.com/DarrenConcepting)",
      "license": "CC-BY-4.0 (http://creativecommons.org/licenses/by/4.0/)",
      "source": "https://sketchfab.com/3d-models/gd51-darren-anderson-mod2-3e08d0d667984ff19e7703a77daef6f8",
      "title": "GD51_Darren Anderson_MOD2"
    },
    "generator": "Sketchfab-4.76.0",
    "version": "2.0"
  },
  "bufferViews": [
    {
      "buffer": 0,
      "byteLength": 756876,
      "byteOffset": 0,
      "name": "floatBufferViews",
      "target": 34963
    },
    {
      "buffer": 0,
      "byteLength": 270472,
      "byteOffset": 756876,
      "byteStride": 8,
      "name": "floatBufferViews",
      "target": 34962
    },
    {
      "buffer": 0,
      "byteLength": 811416,
      "byteOffset": 1027348,
      "byteStride": 12,
      "name": "floatBufferViews",
      "target": 34962
    },
    {
      "buffer": 0,
      "byteLength": 540944,
      "byteOffset": 1838764,
      "byteStride": 16,
      "name": "floatBufferViews",
      "target": 34962
    }
  ],
  "buffers": [
    {
      "byteLength": 2379708,
      "uri": "scene.bin"
    }
  ],
  "images": [
    {
      "uri": "textures/Props_baseColor.png"
    },
    {
      "uri": "textures/Props_emissive.png"
    },
    {
      "uri": "textures/Props_metallicRoughness.png"
    },
    {
      "uri": "textures/Props_normal.png"
    },
    {
      "uri": "textures/Body_baseColor.png"
    },
    {
      "uri": "textures/Body_emissive.png"
    },
    {
      "uri": "textures/Body_metallicRoughness.png"
    },
    {
      "uri": "textures/Body_normal.png"
    }
  ],
  "materials": [
    {
      "alphaMode": "BLEND",
      "doubleSided": true,
      "emissiveFactor": [
        1,
        1,
        1
      ],
      "emissiveTexture": {
        "index": 5,
        "texCoord": 0
      },
      "name": "Body",
      "normalTexture": {
        "index": 7,
        "scale": 1,
        "texCoord": 0
      },
      "occlusionTexture": {
        "index": 6,
        "strength": 1,
        "texCoord": 0
      },
      "pbrMetallicRoughness": {
        "baseColorFactor": [
          1,
          1,
          1,
          1
        ],
        "baseColorTexture": {
          "index": 4,
          "texCoord": 0
        },
        "metallicFactor": 1,
        "metallicRoughnessTexture": {
          "index": 6,
          "texCoord": 0
        },
        "roughnessFactor": 1
      }
    },
    {
      "alphaMode": "BLEND",
      "doubleSided": true,
      "emissiveFactor": [
        1,
        1,
        1
      ],
      "emissiveTexture": {
        "index": 1,
        "texCoord": 0
      },
      "name": "Props",
      "normalTexture": {
        "index": 3,
        "scale": 1,
        "texCoord": 0
      },
      "occlusionTexture": {
        "index": 2,
        "strength": 1,
        "texCoord": 0
      },
      "pbrMetallicRoughness": {
        "baseColorFactor": [
          1,
          1,
          1,
          1
        ],
        "baseColorTexture": {
          "index": 0,
          "texCoord": 0
        },
        "metallicFactor": 1,
        "metallicRoughnessTexture": {
          "index": 2,
          "texCoord": 0
        },
        "roughnessFactor": 1
      }
    }
  ],
  "meshes": [
    {
      "name": "polySurface60_Body_0",
      "primitives": [
        {
          "attributes": {
            "NORMAL": 1,
            "POSITION": 0,
            "TANGENT": 2,
            "TEXCOORD_0": 3
          },
          "indices": 4,
          "material": 0,
          "mode": 4
        }
      ]
    },
    {
      "name": "polySurface60_Props_0",
      "primitives": [
        {
          "attributes": {
            "NORMAL": 6,
            "POSITION": 5,
            "TANGENT": 7,
            "TEXCOORD_0": 8
          },
          "indices": 9,
          "material": 1,
          "mode": 4
        }
      ]
    }
  ],
  "nodes": [
    {
      "children": [
        1
      ],
      "name": "RootNode (gltf orientation matrix)",
      "rotation": [
        -0.70710678118654746,
        -0,
        -0,
        0.70710678118654757
      ]
    },
    {
      "children": [
        2
      ],
      "name": "RootNode (model correction matrix)"
    },
    {
      "children": [
        3
      ],
      "matrix": [
        1,
        0,
        0,
        0,
        0,
        0,
        1,
        0,
        0,
        -1,
        0,
        0,
        0,
        0,
        0,
        1
      ],
      "name": "gd51_DarrenAnderson_MOD2.fbx"
    },
    {
      "children": [
        4
      ],
      "name": "RootNode"
    },
    {
      "children": [
        5,
        6
      ],
      "name": "polySurface60"
    },
    {
      "mesh": 0,
      "name": "polySurface60_Body_0"
    },
    {
      "mesh": 1,
      "name": "polySurface60_Props_0"
    }
  ],
  "samplers": [
    {
      "magFilter": 9729,
      "minFilter": 9987,
      "wrapS": 10497,
      "wrapT": 10497
    }
  ],
  "scene": 0,
  "scenes": [
    {
      "name": "OSG_Scene",
      "nodes": [
        0
      ]
    }
  ],
  "textures": [
    {
      "sampler": 0,
      "source": 0
    },
    {
      "sampler": 0,
      "source": 1
    },
    {
      "sampler": 0,
      "source": 2
    },
    {
      "sampler": 0,
      "source": 3
    },
    {
      "sampler": 0,
      "source": 4
    },
    {
      "sampler": 0,
      "source": 5
    },
    {
      "sampler": 0,
      "source": 6
    },
    {
      "sampler": 0,
      "source": 7
    }
  ]
}

